%TF.GenerationSoftware,KiCad,Pcbnew,7.0.9*%
%TF.CreationDate,2024-04-23T20:51:24-07:00*%
%TF.ProjectId,U29-74LS02,5532392d-3734-44c5-9330-322e6b696361,rev?*%
%TF.SameCoordinates,Original*%
%TF.FileFunction,Legend,Top*%
%TF.FilePolarity,Positive*%
%FSLAX46Y46*%
G04 Gerber Fmt 4.6, Leading zero omitted, Abs format (unit mm)*
G04 Created by KiCad (PCBNEW 7.0.9) date 2024-04-23 20:51:24*
%MOMM*%
%LPD*%
G01*
G04 APERTURE LIST*
%ADD10C,0.150000*%
%ADD11C,0.100000*%
%ADD12C,0.120000*%
G04 APERTURE END LIST*
D10*
X158451779Y-106819819D02*
X158451779Y-107629342D01*
X158451779Y-107629342D02*
X158499398Y-107724580D01*
X158499398Y-107724580D02*
X158547017Y-107772200D01*
X158547017Y-107772200D02*
X158642255Y-107819819D01*
X158642255Y-107819819D02*
X158832731Y-107819819D01*
X158832731Y-107819819D02*
X158927969Y-107772200D01*
X158927969Y-107772200D02*
X158975588Y-107724580D01*
X158975588Y-107724580D02*
X159023207Y-107629342D01*
X159023207Y-107629342D02*
X159023207Y-106819819D01*
X160023207Y-107819819D02*
X159451779Y-107819819D01*
X159737493Y-107819819D02*
X159737493Y-106819819D01*
X159737493Y-106819819D02*
X159642255Y-106962676D01*
X159642255Y-106962676D02*
X159547017Y-107057914D01*
X159547017Y-107057914D02*
X159451779Y-107105533D01*
X160975588Y-107819819D02*
X160404160Y-107819819D01*
X160689874Y-107819819D02*
X160689874Y-106819819D01*
X160689874Y-106819819D02*
X160594636Y-106962676D01*
X160594636Y-106962676D02*
X160499398Y-107057914D01*
X160499398Y-107057914D02*
X160404160Y-107105533D01*
X162118922Y-106819819D02*
X162690350Y-106819819D01*
X162404636Y-107819819D02*
X162404636Y-106819819D01*
X163023684Y-107819819D02*
X163023684Y-106819819D01*
X163023684Y-106819819D02*
X163404636Y-106819819D01*
X163404636Y-106819819D02*
X163499874Y-106867438D01*
X163499874Y-106867438D02*
X163547493Y-106915057D01*
X163547493Y-106915057D02*
X163595112Y-107010295D01*
X163595112Y-107010295D02*
X163595112Y-107153152D01*
X163595112Y-107153152D02*
X163547493Y-107248390D01*
X163547493Y-107248390D02*
X163499874Y-107296009D01*
X163499874Y-107296009D02*
X163404636Y-107343628D01*
X163404636Y-107343628D02*
X163023684Y-107343628D01*
X164547493Y-107819819D02*
X163976065Y-107819819D01*
X164261779Y-107819819D02*
X164261779Y-106819819D01*
X164261779Y-106819819D02*
X164166541Y-106962676D01*
X164166541Y-106962676D02*
X164071303Y-107057914D01*
X164071303Y-107057914D02*
X163976065Y-107105533D01*
D11*
%TO.C,J1*%
X159004000Y-110236000D02*
X161036000Y-110236000D01*
X161036000Y-110236000D02*
X161036000Y-108204000D01*
X161036000Y-108204000D02*
X159004000Y-108204000D01*
X159004000Y-108204000D02*
X159004000Y-110236000D01*
X161544000Y-110236000D02*
X163576000Y-110236000D01*
X163576000Y-110236000D02*
X163576000Y-108204000D01*
X163576000Y-108204000D02*
X161544000Y-108204000D01*
X161544000Y-108204000D02*
X161544000Y-110236000D01*
D12*
%TO.C,SOCKET_74LS1*%
X157750000Y-87570000D02*
G75*
G03*
X159750000Y-87570000I1000000J0D01*
G01*
X161400000Y-105470000D02*
X161400000Y-87570000D01*
X153610000Y-87510000D02*
X153610000Y-105530000D01*
X157750000Y-87570000D02*
X156100000Y-87570000D01*
X156100000Y-105470000D02*
X161400000Y-105470000D01*
X156100000Y-87570000D02*
X156100000Y-105470000D01*
X161400000Y-87570000D02*
X159750000Y-87570000D01*
X153610000Y-105530000D02*
X163890000Y-105530000D01*
X163890000Y-105530000D02*
X163890000Y-87510000D01*
X163890000Y-87510000D02*
X153610000Y-87510000D01*
%TD*%
M02*
