%TF.GenerationSoftware,KiCad,Pcbnew,7.0.9*%
%TF.CreationDate,2024-04-23T20:51:24-07:00*%
%TF.ProjectId,U29-74LS02,5532392d-3734-44c5-9330-322e6b696361,rev?*%
%TF.SameCoordinates,Original*%
%TF.FileFunction,Copper,L2,Bot*%
%TF.FilePolarity,Positive*%
%FSLAX46Y46*%
G04 Gerber Fmt 4.6, Leading zero omitted, Abs format (unit mm)*
G04 Created by KiCad (PCBNEW 7.0.9) date 2024-04-23 20:51:24*
%MOMM*%
%LPD*%
G01*
G04 APERTURE LIST*
%TA.AperFunction,ComponentPad*%
%ADD10R,1.700000X1.700000*%
%TD*%
%TA.AperFunction,ComponentPad*%
%ADD11O,1.600000X1.600000*%
%TD*%
%TA.AperFunction,ComponentPad*%
%ADD12R,1.600000X1.600000*%
%TD*%
%TA.AperFunction,Conductor*%
%ADD13C,0.250000*%
%TD*%
G04 APERTURE END LIST*
D10*
%TO.P,J1,1,Pin_1*%
%TO.N,Net-(J1-Pin_1)*%
X160020000Y-109220000D03*
%TO.P,J1,2,Pin_2*%
%TO.N,Net-(J1-Pin_2)*%
X162560000Y-109220000D03*
%TD*%
D11*
%TO.P,U29,14,VCC*%
%TO.N,VCC*%
X160020000Y-86360000D03*
%TO.P,U29,13*%
%TO.N,Net-(SOCKET_74LS1-Pad13)*%
X160020000Y-88900000D03*
%TO.P,U29,12*%
%TO.N,Net-(SOCKET_74LS1-Pad12)*%
X160020000Y-91440000D03*
%TO.P,U29,11*%
%TO.N,Net-(SOCKET_74LS1-Pad11)*%
X160020000Y-93980000D03*
%TO.P,U29,10*%
%TO.N,Net-(SOCKET_74LS1-Pad10)*%
X160020000Y-96520000D03*
%TO.P,U29,9*%
%TO.N,Net-(SOCKET_74LS1-Pad9)*%
X160020000Y-99060000D03*
%TO.P,U29,8*%
%TO.N,Net-(SOCKET_74LS1-Pad6)*%
X160020000Y-101600000D03*
%TO.P,U29,7,GND*%
%TO.N,GND*%
X152400000Y-101600000D03*
%TO.P,U29,6*%
%TO.N,unconnected-(U29-Pad6)*%
X152400000Y-99060000D03*
%TO.P,U29,5*%
%TO.N,unconnected-(U29-Pad5)*%
X152400000Y-96520000D03*
%TO.P,U29,4*%
%TO.N,unconnected-(U29-Pad4)*%
X152400000Y-93980000D03*
%TO.P,U29,3*%
%TO.N,Net-(SOCKET_74LS1-Pad3)*%
X152400000Y-91440000D03*
%TO.P,U29,2*%
%TO.N,Net-(SOCKET_74LS1-Pad2)*%
X152400000Y-88900000D03*
D12*
%TO.P,U29,1*%
%TO.N,Net-(SOCKET_74LS1-Pad1)*%
X152400000Y-86360000D03*
%TD*%
D11*
%TO.P,SOCKET_74LS1,14,VCC*%
%TO.N,VCC*%
X162560000Y-88900000D03*
%TO.P,SOCKET_74LS1,13*%
%TO.N,Net-(SOCKET_74LS1-Pad13)*%
X162560000Y-91440000D03*
%TO.P,SOCKET_74LS1,12*%
%TO.N,Net-(SOCKET_74LS1-Pad12)*%
X162560000Y-93980000D03*
%TO.P,SOCKET_74LS1,11*%
%TO.N,Net-(SOCKET_74LS1-Pad11)*%
X162560000Y-96520000D03*
%TO.P,SOCKET_74LS1,10*%
%TO.N,Net-(SOCKET_74LS1-Pad10)*%
X162560000Y-99060000D03*
%TO.P,SOCKET_74LS1,9*%
%TO.N,Net-(SOCKET_74LS1-Pad9)*%
X162560000Y-101600000D03*
%TO.P,SOCKET_74LS1,8*%
%TO.N,Net-(SOCKET_74LS1-Pad6)*%
X162560000Y-104140000D03*
%TO.P,SOCKET_74LS1,7,GND*%
%TO.N,GND*%
X154940000Y-104140000D03*
%TO.P,SOCKET_74LS1,6*%
%TO.N,Net-(SOCKET_74LS1-Pad6)*%
X154940000Y-101600000D03*
%TO.P,SOCKET_74LS1,5*%
%TO.N,Net-(J1-Pin_2)*%
X154940000Y-99060000D03*
%TO.P,SOCKET_74LS1,4*%
%TO.N,Net-(J1-Pin_1)*%
X154940000Y-96520000D03*
%TO.P,SOCKET_74LS1,3*%
%TO.N,Net-(SOCKET_74LS1-Pad3)*%
X154940000Y-93980000D03*
%TO.P,SOCKET_74LS1,2*%
%TO.N,Net-(SOCKET_74LS1-Pad2)*%
X154940000Y-91440000D03*
D12*
%TO.P,SOCKET_74LS1,1*%
%TO.N,Net-(SOCKET_74LS1-Pad1)*%
X154940000Y-88900000D03*
%TD*%
D13*
%TO.N,Net-(J1-Pin_1)*%
X153670000Y-97790000D02*
X153670000Y-104460991D01*
X153670000Y-104460991D02*
X158429009Y-109220000D01*
X154940000Y-96520000D02*
X153670000Y-97790000D01*
X158429009Y-109220000D02*
X160020000Y-109220000D01*
%TO.N,Net-(J1-Pin_2)*%
X162560000Y-106680000D02*
X154940000Y-99060000D01*
X162560000Y-109220000D02*
X162560000Y-106680000D01*
%TD*%
M02*
