%TF.GenerationSoftware,KiCad,Pcbnew,7.0.9*%
%TF.CreationDate,2024-04-23T21:05:59-07:00*%
%TF.ProjectId,U11-74LS138,5531312d-3734-44c5-9331-33382e6b6963,rev?*%
%TF.SameCoordinates,Original*%
%TF.FileFunction,Drillmap*%
%TF.FilePolarity,Positive*%
%FSLAX45Y45*%
G04 Gerber Fmt 4.5, Leading zero omitted, Abs format (unit mm)*
G04 Created by KiCad (PCBNEW 7.0.9) date 2024-04-23 21:05:59*
%MOMM*%
%LPD*%
G01*
G04 APERTURE LIST*
%ADD10C,0.100000*%
%ADD11C,0.200000*%
G04 APERTURE END LIST*
D10*
X15938500Y-8509000D02*
X14605000Y-8509000D01*
X15938500Y-11049000D02*
X15938500Y-8509000D01*
X14605000Y-11049000D02*
X15938500Y-11049000D01*
X14605000Y-8509000D02*
X14605000Y-11049000D01*
D11*
D10*
X14692000Y-9040500D02*
X14772000Y-9120500D01*
X14772000Y-9040500D02*
X14692000Y-9120500D01*
X14692000Y-9294500D02*
X14772000Y-9374500D01*
X14772000Y-9294500D02*
X14692000Y-9374500D01*
X14692000Y-9548500D02*
X14772000Y-9628500D01*
X14772000Y-9548500D02*
X14692000Y-9628500D01*
X14692000Y-9802500D02*
X14772000Y-9882500D01*
X14772000Y-9802500D02*
X14692000Y-9882500D01*
X14692000Y-10056500D02*
X14772000Y-10136500D01*
X14772000Y-10056500D02*
X14692000Y-10136500D01*
X14692000Y-10310500D02*
X14772000Y-10390500D01*
X14772000Y-10310500D02*
X14692000Y-10390500D01*
X14692000Y-10564500D02*
X14772000Y-10644500D01*
X14772000Y-10564500D02*
X14692000Y-10644500D01*
X14692000Y-10818500D02*
X14772000Y-10898500D01*
X14772000Y-10818500D02*
X14692000Y-10898500D01*
X14946000Y-9045500D02*
X15026000Y-9125500D01*
X15026000Y-9045500D02*
X14946000Y-9125500D01*
X14946000Y-9299500D02*
X15026000Y-9379500D01*
X15026000Y-9299500D02*
X14946000Y-9379500D01*
X14946000Y-9553500D02*
X15026000Y-9633500D01*
X15026000Y-9553500D02*
X14946000Y-9633500D01*
X14946000Y-9807500D02*
X15026000Y-9887500D01*
X15026000Y-9807500D02*
X14946000Y-9887500D01*
X14946000Y-10061500D02*
X15026000Y-10141500D01*
X15026000Y-10061500D02*
X14946000Y-10141500D01*
X14946000Y-10315500D02*
X15026000Y-10395500D01*
X15026000Y-10315500D02*
X14946000Y-10395500D01*
X14946000Y-10569500D02*
X15026000Y-10649500D01*
X15026000Y-10569500D02*
X14946000Y-10649500D01*
X14946000Y-10823500D02*
X15026000Y-10903500D01*
X15026000Y-10823500D02*
X14946000Y-10903500D01*
X15454000Y-9040500D02*
X15534000Y-9120500D01*
X15534000Y-9040500D02*
X15454000Y-9120500D01*
X15454000Y-9294500D02*
X15534000Y-9374500D01*
X15534000Y-9294500D02*
X15454000Y-9374500D01*
X15454000Y-9548500D02*
X15534000Y-9628500D01*
X15534000Y-9548500D02*
X15454000Y-9628500D01*
X15454000Y-9802500D02*
X15534000Y-9882500D01*
X15534000Y-9802500D02*
X15454000Y-9882500D01*
X15454000Y-10056500D02*
X15534000Y-10136500D01*
X15534000Y-10056500D02*
X15454000Y-10136500D01*
X15454000Y-10310500D02*
X15534000Y-10390500D01*
X15534000Y-10310500D02*
X15454000Y-10390500D01*
X15454000Y-10564500D02*
X15534000Y-10644500D01*
X15534000Y-10564500D02*
X15454000Y-10644500D01*
X15454000Y-10818500D02*
X15534000Y-10898500D01*
X15534000Y-10818500D02*
X15454000Y-10898500D01*
X15708000Y-9045500D02*
X15788000Y-9125500D01*
X15788000Y-9045500D02*
X15708000Y-9125500D01*
X15708000Y-9299500D02*
X15788000Y-9379500D01*
X15788000Y-9299500D02*
X15708000Y-9379500D01*
X15708000Y-9553500D02*
X15788000Y-9633500D01*
X15788000Y-9553500D02*
X15708000Y-9633500D01*
X15708000Y-9807500D02*
X15788000Y-9887500D01*
X15788000Y-9807500D02*
X15708000Y-9887500D01*
X15708000Y-10061500D02*
X15788000Y-10141500D01*
X15788000Y-10061500D02*
X15708000Y-10141500D01*
X15708000Y-10315500D02*
X15788000Y-10395500D01*
X15788000Y-10315500D02*
X15708000Y-10395500D01*
X15708000Y-10569500D02*
X15788000Y-10649500D01*
X15788000Y-10569500D02*
X15708000Y-10649500D01*
X15708000Y-10823500D02*
X15788000Y-10903500D01*
X15788000Y-10823500D02*
X15708000Y-10903500D01*
X14845500Y-8699500D02*
G75*
G03*
X14845500Y-8699500I-50000J0D01*
G01*
D11*
X14860777Y-11365484D02*
X14860777Y-11165484D01*
X14860777Y-11165484D02*
X14908396Y-11165484D01*
X14908396Y-11165484D02*
X14936967Y-11175008D01*
X14936967Y-11175008D02*
X14956015Y-11194055D01*
X14956015Y-11194055D02*
X14965539Y-11213103D01*
X14965539Y-11213103D02*
X14975062Y-11251198D01*
X14975062Y-11251198D02*
X14975062Y-11279769D01*
X14975062Y-11279769D02*
X14965539Y-11317865D01*
X14965539Y-11317865D02*
X14956015Y-11336912D01*
X14956015Y-11336912D02*
X14936967Y-11355960D01*
X14936967Y-11355960D02*
X14908396Y-11365484D01*
X14908396Y-11365484D02*
X14860777Y-11365484D01*
X15060777Y-11365484D02*
X15060777Y-11232150D01*
X15060777Y-11270246D02*
X15070301Y-11251198D01*
X15070301Y-11251198D02*
X15079824Y-11241674D01*
X15079824Y-11241674D02*
X15098872Y-11232150D01*
X15098872Y-11232150D02*
X15117920Y-11232150D01*
X15184586Y-11365484D02*
X15184586Y-11232150D01*
X15184586Y-11165484D02*
X15175062Y-11175008D01*
X15175062Y-11175008D02*
X15184586Y-11184531D01*
X15184586Y-11184531D02*
X15194110Y-11175008D01*
X15194110Y-11175008D02*
X15184586Y-11165484D01*
X15184586Y-11165484D02*
X15184586Y-11184531D01*
X15308396Y-11365484D02*
X15289348Y-11355960D01*
X15289348Y-11355960D02*
X15279824Y-11336912D01*
X15279824Y-11336912D02*
X15279824Y-11165484D01*
X15413158Y-11365484D02*
X15394110Y-11355960D01*
X15394110Y-11355960D02*
X15384586Y-11336912D01*
X15384586Y-11336912D02*
X15384586Y-11165484D01*
X15641729Y-11365484D02*
X15641729Y-11165484D01*
X15641729Y-11165484D02*
X15708396Y-11308341D01*
X15708396Y-11308341D02*
X15775062Y-11165484D01*
X15775062Y-11165484D02*
X15775062Y-11365484D01*
X15956015Y-11365484D02*
X15956015Y-11260722D01*
X15956015Y-11260722D02*
X15946491Y-11241674D01*
X15946491Y-11241674D02*
X15927443Y-11232150D01*
X15927443Y-11232150D02*
X15889348Y-11232150D01*
X15889348Y-11232150D02*
X15870301Y-11241674D01*
X15956015Y-11355960D02*
X15936967Y-11365484D01*
X15936967Y-11365484D02*
X15889348Y-11365484D01*
X15889348Y-11365484D02*
X15870301Y-11355960D01*
X15870301Y-11355960D02*
X15860777Y-11336912D01*
X15860777Y-11336912D02*
X15860777Y-11317865D01*
X15860777Y-11317865D02*
X15870301Y-11298817D01*
X15870301Y-11298817D02*
X15889348Y-11289293D01*
X15889348Y-11289293D02*
X15936967Y-11289293D01*
X15936967Y-11289293D02*
X15956015Y-11279769D01*
X16051253Y-11232150D02*
X16051253Y-11432150D01*
X16051253Y-11241674D02*
X16070301Y-11232150D01*
X16070301Y-11232150D02*
X16108396Y-11232150D01*
X16108396Y-11232150D02*
X16127443Y-11241674D01*
X16127443Y-11241674D02*
X16136967Y-11251198D01*
X16136967Y-11251198D02*
X16146491Y-11270246D01*
X16146491Y-11270246D02*
X16146491Y-11327388D01*
X16146491Y-11327388D02*
X16136967Y-11346436D01*
X16136967Y-11346436D02*
X16127443Y-11355960D01*
X16127443Y-11355960D02*
X16108396Y-11365484D01*
X16108396Y-11365484D02*
X16070301Y-11365484D01*
X16070301Y-11365484D02*
X16051253Y-11355960D01*
X16232205Y-11346436D02*
X16241729Y-11355960D01*
X16241729Y-11355960D02*
X16232205Y-11365484D01*
X16232205Y-11365484D02*
X16222682Y-11355960D01*
X16222682Y-11355960D02*
X16232205Y-11346436D01*
X16232205Y-11346436D02*
X16232205Y-11365484D01*
X16232205Y-11241674D02*
X16241729Y-11251198D01*
X16241729Y-11251198D02*
X16232205Y-11260722D01*
X16232205Y-11260722D02*
X16222682Y-11251198D01*
X16222682Y-11251198D02*
X16232205Y-11241674D01*
X16232205Y-11241674D02*
X16232205Y-11260722D01*
D10*
X14520000Y-11654000D02*
X14600000Y-11734000D01*
X14600000Y-11654000D02*
X14520000Y-11734000D01*
D11*
X14898872Y-11585484D02*
X14917920Y-11585484D01*
X14917920Y-11585484D02*
X14936967Y-11595008D01*
X14936967Y-11595008D02*
X14946491Y-11604531D01*
X14946491Y-11604531D02*
X14956015Y-11623579D01*
X14956015Y-11623579D02*
X14965539Y-11661674D01*
X14965539Y-11661674D02*
X14965539Y-11709293D01*
X14965539Y-11709293D02*
X14956015Y-11747388D01*
X14956015Y-11747388D02*
X14946491Y-11766436D01*
X14946491Y-11766436D02*
X14936967Y-11775960D01*
X14936967Y-11775960D02*
X14917920Y-11785484D01*
X14917920Y-11785484D02*
X14898872Y-11785484D01*
X14898872Y-11785484D02*
X14879824Y-11775960D01*
X14879824Y-11775960D02*
X14870301Y-11766436D01*
X14870301Y-11766436D02*
X14860777Y-11747388D01*
X14860777Y-11747388D02*
X14851253Y-11709293D01*
X14851253Y-11709293D02*
X14851253Y-11661674D01*
X14851253Y-11661674D02*
X14860777Y-11623579D01*
X14860777Y-11623579D02*
X14870301Y-11604531D01*
X14870301Y-11604531D02*
X14879824Y-11595008D01*
X14879824Y-11595008D02*
X14898872Y-11585484D01*
X15051253Y-11766436D02*
X15060777Y-11775960D01*
X15060777Y-11775960D02*
X15051253Y-11785484D01*
X15051253Y-11785484D02*
X15041729Y-11775960D01*
X15041729Y-11775960D02*
X15051253Y-11766436D01*
X15051253Y-11766436D02*
X15051253Y-11785484D01*
X15175062Y-11671198D02*
X15156015Y-11661674D01*
X15156015Y-11661674D02*
X15146491Y-11652150D01*
X15146491Y-11652150D02*
X15136967Y-11633103D01*
X15136967Y-11633103D02*
X15136967Y-11623579D01*
X15136967Y-11623579D02*
X15146491Y-11604531D01*
X15146491Y-11604531D02*
X15156015Y-11595008D01*
X15156015Y-11595008D02*
X15175062Y-11585484D01*
X15175062Y-11585484D02*
X15213158Y-11585484D01*
X15213158Y-11585484D02*
X15232205Y-11595008D01*
X15232205Y-11595008D02*
X15241729Y-11604531D01*
X15241729Y-11604531D02*
X15251253Y-11623579D01*
X15251253Y-11623579D02*
X15251253Y-11633103D01*
X15251253Y-11633103D02*
X15241729Y-11652150D01*
X15241729Y-11652150D02*
X15232205Y-11661674D01*
X15232205Y-11661674D02*
X15213158Y-11671198D01*
X15213158Y-11671198D02*
X15175062Y-11671198D01*
X15175062Y-11671198D02*
X15156015Y-11680722D01*
X15156015Y-11680722D02*
X15146491Y-11690246D01*
X15146491Y-11690246D02*
X15136967Y-11709293D01*
X15136967Y-11709293D02*
X15136967Y-11747388D01*
X15136967Y-11747388D02*
X15146491Y-11766436D01*
X15146491Y-11766436D02*
X15156015Y-11775960D01*
X15156015Y-11775960D02*
X15175062Y-11785484D01*
X15175062Y-11785484D02*
X15213158Y-11785484D01*
X15213158Y-11785484D02*
X15232205Y-11775960D01*
X15232205Y-11775960D02*
X15241729Y-11766436D01*
X15241729Y-11766436D02*
X15251253Y-11747388D01*
X15251253Y-11747388D02*
X15251253Y-11709293D01*
X15251253Y-11709293D02*
X15241729Y-11690246D01*
X15241729Y-11690246D02*
X15232205Y-11680722D01*
X15232205Y-11680722D02*
X15213158Y-11671198D01*
X15375062Y-11585484D02*
X15394110Y-11585484D01*
X15394110Y-11585484D02*
X15413158Y-11595008D01*
X15413158Y-11595008D02*
X15422682Y-11604531D01*
X15422682Y-11604531D02*
X15432205Y-11623579D01*
X15432205Y-11623579D02*
X15441729Y-11661674D01*
X15441729Y-11661674D02*
X15441729Y-11709293D01*
X15441729Y-11709293D02*
X15432205Y-11747388D01*
X15432205Y-11747388D02*
X15422682Y-11766436D01*
X15422682Y-11766436D02*
X15413158Y-11775960D01*
X15413158Y-11775960D02*
X15394110Y-11785484D01*
X15394110Y-11785484D02*
X15375062Y-11785484D01*
X15375062Y-11785484D02*
X15356015Y-11775960D01*
X15356015Y-11775960D02*
X15346491Y-11766436D01*
X15346491Y-11766436D02*
X15336967Y-11747388D01*
X15336967Y-11747388D02*
X15327443Y-11709293D01*
X15327443Y-11709293D02*
X15327443Y-11661674D01*
X15327443Y-11661674D02*
X15336967Y-11623579D01*
X15336967Y-11623579D02*
X15346491Y-11604531D01*
X15346491Y-11604531D02*
X15356015Y-11595008D01*
X15356015Y-11595008D02*
X15375062Y-11585484D01*
X15565539Y-11585484D02*
X15584586Y-11585484D01*
X15584586Y-11585484D02*
X15603634Y-11595008D01*
X15603634Y-11595008D02*
X15613158Y-11604531D01*
X15613158Y-11604531D02*
X15622682Y-11623579D01*
X15622682Y-11623579D02*
X15632205Y-11661674D01*
X15632205Y-11661674D02*
X15632205Y-11709293D01*
X15632205Y-11709293D02*
X15622682Y-11747388D01*
X15622682Y-11747388D02*
X15613158Y-11766436D01*
X15613158Y-11766436D02*
X15603634Y-11775960D01*
X15603634Y-11775960D02*
X15584586Y-11785484D01*
X15584586Y-11785484D02*
X15565539Y-11785484D01*
X15565539Y-11785484D02*
X15546491Y-11775960D01*
X15546491Y-11775960D02*
X15536967Y-11766436D01*
X15536967Y-11766436D02*
X15527443Y-11747388D01*
X15527443Y-11747388D02*
X15517920Y-11709293D01*
X15517920Y-11709293D02*
X15517920Y-11661674D01*
X15517920Y-11661674D02*
X15527443Y-11623579D01*
X15527443Y-11623579D02*
X15536967Y-11604531D01*
X15536967Y-11604531D02*
X15546491Y-11595008D01*
X15546491Y-11595008D02*
X15565539Y-11585484D01*
X15717920Y-11785484D02*
X15717920Y-11652150D01*
X15717920Y-11671198D02*
X15727443Y-11661674D01*
X15727443Y-11661674D02*
X15746491Y-11652150D01*
X15746491Y-11652150D02*
X15775063Y-11652150D01*
X15775063Y-11652150D02*
X15794110Y-11661674D01*
X15794110Y-11661674D02*
X15803634Y-11680722D01*
X15803634Y-11680722D02*
X15803634Y-11785484D01*
X15803634Y-11680722D02*
X15813158Y-11661674D01*
X15813158Y-11661674D02*
X15832205Y-11652150D01*
X15832205Y-11652150D02*
X15860777Y-11652150D01*
X15860777Y-11652150D02*
X15879824Y-11661674D01*
X15879824Y-11661674D02*
X15889348Y-11680722D01*
X15889348Y-11680722D02*
X15889348Y-11785484D01*
X15984586Y-11785484D02*
X15984586Y-11652150D01*
X15984586Y-11671198D02*
X15994110Y-11661674D01*
X15994110Y-11661674D02*
X16013158Y-11652150D01*
X16013158Y-11652150D02*
X16041729Y-11652150D01*
X16041729Y-11652150D02*
X16060777Y-11661674D01*
X16060777Y-11661674D02*
X16070301Y-11680722D01*
X16070301Y-11680722D02*
X16070301Y-11785484D01*
X16070301Y-11680722D02*
X16079824Y-11661674D01*
X16079824Y-11661674D02*
X16098872Y-11652150D01*
X16098872Y-11652150D02*
X16127443Y-11652150D01*
X16127443Y-11652150D02*
X16146491Y-11661674D01*
X16146491Y-11661674D02*
X16156015Y-11680722D01*
X16156015Y-11680722D02*
X16156015Y-11785484D01*
X16546491Y-11575960D02*
X16375063Y-11833103D01*
X16803634Y-11585484D02*
X16822682Y-11585484D01*
X16822682Y-11585484D02*
X16841729Y-11595008D01*
X16841729Y-11595008D02*
X16851253Y-11604531D01*
X16851253Y-11604531D02*
X16860777Y-11623579D01*
X16860777Y-11623579D02*
X16870301Y-11661674D01*
X16870301Y-11661674D02*
X16870301Y-11709293D01*
X16870301Y-11709293D02*
X16860777Y-11747388D01*
X16860777Y-11747388D02*
X16851253Y-11766436D01*
X16851253Y-11766436D02*
X16841729Y-11775960D01*
X16841729Y-11775960D02*
X16822682Y-11785484D01*
X16822682Y-11785484D02*
X16803634Y-11785484D01*
X16803634Y-11785484D02*
X16784587Y-11775960D01*
X16784587Y-11775960D02*
X16775063Y-11766436D01*
X16775063Y-11766436D02*
X16765539Y-11747388D01*
X16765539Y-11747388D02*
X16756015Y-11709293D01*
X16756015Y-11709293D02*
X16756015Y-11661674D01*
X16756015Y-11661674D02*
X16765539Y-11623579D01*
X16765539Y-11623579D02*
X16775063Y-11604531D01*
X16775063Y-11604531D02*
X16784587Y-11595008D01*
X16784587Y-11595008D02*
X16803634Y-11585484D01*
X16956015Y-11766436D02*
X16965539Y-11775960D01*
X16965539Y-11775960D02*
X16956015Y-11785484D01*
X16956015Y-11785484D02*
X16946491Y-11775960D01*
X16946491Y-11775960D02*
X16956015Y-11766436D01*
X16956015Y-11766436D02*
X16956015Y-11785484D01*
X17089348Y-11585484D02*
X17108396Y-11585484D01*
X17108396Y-11585484D02*
X17127444Y-11595008D01*
X17127444Y-11595008D02*
X17136968Y-11604531D01*
X17136968Y-11604531D02*
X17146491Y-11623579D01*
X17146491Y-11623579D02*
X17156015Y-11661674D01*
X17156015Y-11661674D02*
X17156015Y-11709293D01*
X17156015Y-11709293D02*
X17146491Y-11747388D01*
X17146491Y-11747388D02*
X17136968Y-11766436D01*
X17136968Y-11766436D02*
X17127444Y-11775960D01*
X17127444Y-11775960D02*
X17108396Y-11785484D01*
X17108396Y-11785484D02*
X17089348Y-11785484D01*
X17089348Y-11785484D02*
X17070301Y-11775960D01*
X17070301Y-11775960D02*
X17060777Y-11766436D01*
X17060777Y-11766436D02*
X17051253Y-11747388D01*
X17051253Y-11747388D02*
X17041729Y-11709293D01*
X17041729Y-11709293D02*
X17041729Y-11661674D01*
X17041729Y-11661674D02*
X17051253Y-11623579D01*
X17051253Y-11623579D02*
X17060777Y-11604531D01*
X17060777Y-11604531D02*
X17070301Y-11595008D01*
X17070301Y-11595008D02*
X17089348Y-11585484D01*
X17222682Y-11585484D02*
X17346491Y-11585484D01*
X17346491Y-11585484D02*
X17279825Y-11661674D01*
X17279825Y-11661674D02*
X17308396Y-11661674D01*
X17308396Y-11661674D02*
X17327444Y-11671198D01*
X17327444Y-11671198D02*
X17336968Y-11680722D01*
X17336968Y-11680722D02*
X17346491Y-11699769D01*
X17346491Y-11699769D02*
X17346491Y-11747388D01*
X17346491Y-11747388D02*
X17336968Y-11766436D01*
X17336968Y-11766436D02*
X17327444Y-11775960D01*
X17327444Y-11775960D02*
X17308396Y-11785484D01*
X17308396Y-11785484D02*
X17251253Y-11785484D01*
X17251253Y-11785484D02*
X17232206Y-11775960D01*
X17232206Y-11775960D02*
X17222682Y-11766436D01*
X17536968Y-11785484D02*
X17422682Y-11785484D01*
X17479825Y-11785484D02*
X17479825Y-11585484D01*
X17479825Y-11585484D02*
X17460777Y-11614055D01*
X17460777Y-11614055D02*
X17441729Y-11633103D01*
X17441729Y-11633103D02*
X17422682Y-11642627D01*
X17717920Y-11585484D02*
X17622682Y-11585484D01*
X17622682Y-11585484D02*
X17613158Y-11680722D01*
X17613158Y-11680722D02*
X17622682Y-11671198D01*
X17622682Y-11671198D02*
X17641729Y-11661674D01*
X17641729Y-11661674D02*
X17689349Y-11661674D01*
X17689349Y-11661674D02*
X17708396Y-11671198D01*
X17708396Y-11671198D02*
X17717920Y-11680722D01*
X17717920Y-11680722D02*
X17727444Y-11699769D01*
X17727444Y-11699769D02*
X17727444Y-11747388D01*
X17727444Y-11747388D02*
X17717920Y-11766436D01*
X17717920Y-11766436D02*
X17708396Y-11775960D01*
X17708396Y-11775960D02*
X17689349Y-11785484D01*
X17689349Y-11785484D02*
X17641729Y-11785484D01*
X17641729Y-11785484D02*
X17622682Y-11775960D01*
X17622682Y-11775960D02*
X17613158Y-11766436D01*
X17803634Y-11585484D02*
X17803634Y-11623579D01*
X17879825Y-11585484D02*
X17879825Y-11623579D01*
X18175063Y-11861674D02*
X18165539Y-11852150D01*
X18165539Y-11852150D02*
X18146491Y-11823579D01*
X18146491Y-11823579D02*
X18136968Y-11804531D01*
X18136968Y-11804531D02*
X18127444Y-11775960D01*
X18127444Y-11775960D02*
X18117920Y-11728341D01*
X18117920Y-11728341D02*
X18117920Y-11690246D01*
X18117920Y-11690246D02*
X18127444Y-11642627D01*
X18127444Y-11642627D02*
X18136968Y-11614055D01*
X18136968Y-11614055D02*
X18146491Y-11595008D01*
X18146491Y-11595008D02*
X18165539Y-11566436D01*
X18165539Y-11566436D02*
X18175063Y-11556912D01*
X18232206Y-11585484D02*
X18356015Y-11585484D01*
X18356015Y-11585484D02*
X18289349Y-11661674D01*
X18289349Y-11661674D02*
X18317920Y-11661674D01*
X18317920Y-11661674D02*
X18336968Y-11671198D01*
X18336968Y-11671198D02*
X18346491Y-11680722D01*
X18346491Y-11680722D02*
X18356015Y-11699769D01*
X18356015Y-11699769D02*
X18356015Y-11747388D01*
X18356015Y-11747388D02*
X18346491Y-11766436D01*
X18346491Y-11766436D02*
X18336968Y-11775960D01*
X18336968Y-11775960D02*
X18317920Y-11785484D01*
X18317920Y-11785484D02*
X18260777Y-11785484D01*
X18260777Y-11785484D02*
X18241730Y-11775960D01*
X18241730Y-11775960D02*
X18232206Y-11766436D01*
X18432206Y-11604531D02*
X18441730Y-11595008D01*
X18441730Y-11595008D02*
X18460777Y-11585484D01*
X18460777Y-11585484D02*
X18508396Y-11585484D01*
X18508396Y-11585484D02*
X18527444Y-11595008D01*
X18527444Y-11595008D02*
X18536968Y-11604531D01*
X18536968Y-11604531D02*
X18546491Y-11623579D01*
X18546491Y-11623579D02*
X18546491Y-11642627D01*
X18546491Y-11642627D02*
X18536968Y-11671198D01*
X18536968Y-11671198D02*
X18422682Y-11785484D01*
X18422682Y-11785484D02*
X18546491Y-11785484D01*
X18784587Y-11785484D02*
X18784587Y-11585484D01*
X18870301Y-11785484D02*
X18870301Y-11680722D01*
X18870301Y-11680722D02*
X18860777Y-11661674D01*
X18860777Y-11661674D02*
X18841730Y-11652150D01*
X18841730Y-11652150D02*
X18813158Y-11652150D01*
X18813158Y-11652150D02*
X18794111Y-11661674D01*
X18794111Y-11661674D02*
X18784587Y-11671198D01*
X18994111Y-11785484D02*
X18975063Y-11775960D01*
X18975063Y-11775960D02*
X18965539Y-11766436D01*
X18965539Y-11766436D02*
X18956015Y-11747388D01*
X18956015Y-11747388D02*
X18956015Y-11690246D01*
X18956015Y-11690246D02*
X18965539Y-11671198D01*
X18965539Y-11671198D02*
X18975063Y-11661674D01*
X18975063Y-11661674D02*
X18994111Y-11652150D01*
X18994111Y-11652150D02*
X19022682Y-11652150D01*
X19022682Y-11652150D02*
X19041730Y-11661674D01*
X19041730Y-11661674D02*
X19051253Y-11671198D01*
X19051253Y-11671198D02*
X19060777Y-11690246D01*
X19060777Y-11690246D02*
X19060777Y-11747388D01*
X19060777Y-11747388D02*
X19051253Y-11766436D01*
X19051253Y-11766436D02*
X19041730Y-11775960D01*
X19041730Y-11775960D02*
X19022682Y-11785484D01*
X19022682Y-11785484D02*
X18994111Y-11785484D01*
X19175063Y-11785484D02*
X19156015Y-11775960D01*
X19156015Y-11775960D02*
X19146492Y-11756912D01*
X19146492Y-11756912D02*
X19146492Y-11585484D01*
X19327444Y-11775960D02*
X19308396Y-11785484D01*
X19308396Y-11785484D02*
X19270301Y-11785484D01*
X19270301Y-11785484D02*
X19251253Y-11775960D01*
X19251253Y-11775960D02*
X19241730Y-11756912D01*
X19241730Y-11756912D02*
X19241730Y-11680722D01*
X19241730Y-11680722D02*
X19251253Y-11661674D01*
X19251253Y-11661674D02*
X19270301Y-11652150D01*
X19270301Y-11652150D02*
X19308396Y-11652150D01*
X19308396Y-11652150D02*
X19327444Y-11661674D01*
X19327444Y-11661674D02*
X19336968Y-11680722D01*
X19336968Y-11680722D02*
X19336968Y-11699769D01*
X19336968Y-11699769D02*
X19241730Y-11718817D01*
X19413158Y-11775960D02*
X19432206Y-11785484D01*
X19432206Y-11785484D02*
X19470301Y-11785484D01*
X19470301Y-11785484D02*
X19489349Y-11775960D01*
X19489349Y-11775960D02*
X19498873Y-11756912D01*
X19498873Y-11756912D02*
X19498873Y-11747388D01*
X19498873Y-11747388D02*
X19489349Y-11728341D01*
X19489349Y-11728341D02*
X19470301Y-11718817D01*
X19470301Y-11718817D02*
X19441730Y-11718817D01*
X19441730Y-11718817D02*
X19422682Y-11709293D01*
X19422682Y-11709293D02*
X19413158Y-11690246D01*
X19413158Y-11690246D02*
X19413158Y-11680722D01*
X19413158Y-11680722D02*
X19422682Y-11661674D01*
X19422682Y-11661674D02*
X19441730Y-11652150D01*
X19441730Y-11652150D02*
X19470301Y-11652150D01*
X19470301Y-11652150D02*
X19489349Y-11661674D01*
X19565539Y-11861674D02*
X19575063Y-11852150D01*
X19575063Y-11852150D02*
X19594111Y-11823579D01*
X19594111Y-11823579D02*
X19603634Y-11804531D01*
X19603634Y-11804531D02*
X19613158Y-11775960D01*
X19613158Y-11775960D02*
X19622682Y-11728341D01*
X19622682Y-11728341D02*
X19622682Y-11690246D01*
X19622682Y-11690246D02*
X19613158Y-11642627D01*
X19613158Y-11642627D02*
X19603634Y-11614055D01*
X19603634Y-11614055D02*
X19594111Y-11595008D01*
X19594111Y-11595008D02*
X19575063Y-11566436D01*
X19575063Y-11566436D02*
X19565539Y-11556912D01*
D10*
X14600000Y-11958000D02*
G75*
G03*
X14600000Y-11958000I-50000J0D01*
G01*
D11*
X14965539Y-12049484D02*
X14851253Y-12049484D01*
X14908396Y-12049484D02*
X14908396Y-11849484D01*
X14908396Y-11849484D02*
X14889348Y-11878055D01*
X14889348Y-11878055D02*
X14870301Y-11897103D01*
X14870301Y-11897103D02*
X14851253Y-11906627D01*
X15051253Y-12030436D02*
X15060777Y-12039960D01*
X15060777Y-12039960D02*
X15051253Y-12049484D01*
X15051253Y-12049484D02*
X15041729Y-12039960D01*
X15041729Y-12039960D02*
X15051253Y-12030436D01*
X15051253Y-12030436D02*
X15051253Y-12049484D01*
X15184586Y-11849484D02*
X15203634Y-11849484D01*
X15203634Y-11849484D02*
X15222682Y-11859008D01*
X15222682Y-11859008D02*
X15232205Y-11868531D01*
X15232205Y-11868531D02*
X15241729Y-11887579D01*
X15241729Y-11887579D02*
X15251253Y-11925674D01*
X15251253Y-11925674D02*
X15251253Y-11973293D01*
X15251253Y-11973293D02*
X15241729Y-12011388D01*
X15241729Y-12011388D02*
X15232205Y-12030436D01*
X15232205Y-12030436D02*
X15222682Y-12039960D01*
X15222682Y-12039960D02*
X15203634Y-12049484D01*
X15203634Y-12049484D02*
X15184586Y-12049484D01*
X15184586Y-12049484D02*
X15165539Y-12039960D01*
X15165539Y-12039960D02*
X15156015Y-12030436D01*
X15156015Y-12030436D02*
X15146491Y-12011388D01*
X15146491Y-12011388D02*
X15136967Y-11973293D01*
X15136967Y-11973293D02*
X15136967Y-11925674D01*
X15136967Y-11925674D02*
X15146491Y-11887579D01*
X15146491Y-11887579D02*
X15156015Y-11868531D01*
X15156015Y-11868531D02*
X15165539Y-11859008D01*
X15165539Y-11859008D02*
X15184586Y-11849484D01*
X15375062Y-11849484D02*
X15394110Y-11849484D01*
X15394110Y-11849484D02*
X15413158Y-11859008D01*
X15413158Y-11859008D02*
X15422682Y-11868531D01*
X15422682Y-11868531D02*
X15432205Y-11887579D01*
X15432205Y-11887579D02*
X15441729Y-11925674D01*
X15441729Y-11925674D02*
X15441729Y-11973293D01*
X15441729Y-11973293D02*
X15432205Y-12011388D01*
X15432205Y-12011388D02*
X15422682Y-12030436D01*
X15422682Y-12030436D02*
X15413158Y-12039960D01*
X15413158Y-12039960D02*
X15394110Y-12049484D01*
X15394110Y-12049484D02*
X15375062Y-12049484D01*
X15375062Y-12049484D02*
X15356015Y-12039960D01*
X15356015Y-12039960D02*
X15346491Y-12030436D01*
X15346491Y-12030436D02*
X15336967Y-12011388D01*
X15336967Y-12011388D02*
X15327443Y-11973293D01*
X15327443Y-11973293D02*
X15327443Y-11925674D01*
X15327443Y-11925674D02*
X15336967Y-11887579D01*
X15336967Y-11887579D02*
X15346491Y-11868531D01*
X15346491Y-11868531D02*
X15356015Y-11859008D01*
X15356015Y-11859008D02*
X15375062Y-11849484D01*
X15565539Y-11849484D02*
X15584586Y-11849484D01*
X15584586Y-11849484D02*
X15603634Y-11859008D01*
X15603634Y-11859008D02*
X15613158Y-11868531D01*
X15613158Y-11868531D02*
X15622682Y-11887579D01*
X15622682Y-11887579D02*
X15632205Y-11925674D01*
X15632205Y-11925674D02*
X15632205Y-11973293D01*
X15632205Y-11973293D02*
X15622682Y-12011388D01*
X15622682Y-12011388D02*
X15613158Y-12030436D01*
X15613158Y-12030436D02*
X15603634Y-12039960D01*
X15603634Y-12039960D02*
X15584586Y-12049484D01*
X15584586Y-12049484D02*
X15565539Y-12049484D01*
X15565539Y-12049484D02*
X15546491Y-12039960D01*
X15546491Y-12039960D02*
X15536967Y-12030436D01*
X15536967Y-12030436D02*
X15527443Y-12011388D01*
X15527443Y-12011388D02*
X15517920Y-11973293D01*
X15517920Y-11973293D02*
X15517920Y-11925674D01*
X15517920Y-11925674D02*
X15527443Y-11887579D01*
X15527443Y-11887579D02*
X15536967Y-11868531D01*
X15536967Y-11868531D02*
X15546491Y-11859008D01*
X15546491Y-11859008D02*
X15565539Y-11849484D01*
X15717920Y-12049484D02*
X15717920Y-11916150D01*
X15717920Y-11935198D02*
X15727443Y-11925674D01*
X15727443Y-11925674D02*
X15746491Y-11916150D01*
X15746491Y-11916150D02*
X15775063Y-11916150D01*
X15775063Y-11916150D02*
X15794110Y-11925674D01*
X15794110Y-11925674D02*
X15803634Y-11944722D01*
X15803634Y-11944722D02*
X15803634Y-12049484D01*
X15803634Y-11944722D02*
X15813158Y-11925674D01*
X15813158Y-11925674D02*
X15832205Y-11916150D01*
X15832205Y-11916150D02*
X15860777Y-11916150D01*
X15860777Y-11916150D02*
X15879824Y-11925674D01*
X15879824Y-11925674D02*
X15889348Y-11944722D01*
X15889348Y-11944722D02*
X15889348Y-12049484D01*
X15984586Y-12049484D02*
X15984586Y-11916150D01*
X15984586Y-11935198D02*
X15994110Y-11925674D01*
X15994110Y-11925674D02*
X16013158Y-11916150D01*
X16013158Y-11916150D02*
X16041729Y-11916150D01*
X16041729Y-11916150D02*
X16060777Y-11925674D01*
X16060777Y-11925674D02*
X16070301Y-11944722D01*
X16070301Y-11944722D02*
X16070301Y-12049484D01*
X16070301Y-11944722D02*
X16079824Y-11925674D01*
X16079824Y-11925674D02*
X16098872Y-11916150D01*
X16098872Y-11916150D02*
X16127443Y-11916150D01*
X16127443Y-11916150D02*
X16146491Y-11925674D01*
X16146491Y-11925674D02*
X16156015Y-11944722D01*
X16156015Y-11944722D02*
X16156015Y-12049484D01*
X16546491Y-11839960D02*
X16375063Y-12097103D01*
X16803634Y-11849484D02*
X16822682Y-11849484D01*
X16822682Y-11849484D02*
X16841729Y-11859008D01*
X16841729Y-11859008D02*
X16851253Y-11868531D01*
X16851253Y-11868531D02*
X16860777Y-11887579D01*
X16860777Y-11887579D02*
X16870301Y-11925674D01*
X16870301Y-11925674D02*
X16870301Y-11973293D01*
X16870301Y-11973293D02*
X16860777Y-12011388D01*
X16860777Y-12011388D02*
X16851253Y-12030436D01*
X16851253Y-12030436D02*
X16841729Y-12039960D01*
X16841729Y-12039960D02*
X16822682Y-12049484D01*
X16822682Y-12049484D02*
X16803634Y-12049484D01*
X16803634Y-12049484D02*
X16784587Y-12039960D01*
X16784587Y-12039960D02*
X16775063Y-12030436D01*
X16775063Y-12030436D02*
X16765539Y-12011388D01*
X16765539Y-12011388D02*
X16756015Y-11973293D01*
X16756015Y-11973293D02*
X16756015Y-11925674D01*
X16756015Y-11925674D02*
X16765539Y-11887579D01*
X16765539Y-11887579D02*
X16775063Y-11868531D01*
X16775063Y-11868531D02*
X16784587Y-11859008D01*
X16784587Y-11859008D02*
X16803634Y-11849484D01*
X16956015Y-12030436D02*
X16965539Y-12039960D01*
X16965539Y-12039960D02*
X16956015Y-12049484D01*
X16956015Y-12049484D02*
X16946491Y-12039960D01*
X16946491Y-12039960D02*
X16956015Y-12030436D01*
X16956015Y-12030436D02*
X16956015Y-12049484D01*
X17089348Y-11849484D02*
X17108396Y-11849484D01*
X17108396Y-11849484D02*
X17127444Y-11859008D01*
X17127444Y-11859008D02*
X17136968Y-11868531D01*
X17136968Y-11868531D02*
X17146491Y-11887579D01*
X17146491Y-11887579D02*
X17156015Y-11925674D01*
X17156015Y-11925674D02*
X17156015Y-11973293D01*
X17156015Y-11973293D02*
X17146491Y-12011388D01*
X17146491Y-12011388D02*
X17136968Y-12030436D01*
X17136968Y-12030436D02*
X17127444Y-12039960D01*
X17127444Y-12039960D02*
X17108396Y-12049484D01*
X17108396Y-12049484D02*
X17089348Y-12049484D01*
X17089348Y-12049484D02*
X17070301Y-12039960D01*
X17070301Y-12039960D02*
X17060777Y-12030436D01*
X17060777Y-12030436D02*
X17051253Y-12011388D01*
X17051253Y-12011388D02*
X17041729Y-11973293D01*
X17041729Y-11973293D02*
X17041729Y-11925674D01*
X17041729Y-11925674D02*
X17051253Y-11887579D01*
X17051253Y-11887579D02*
X17060777Y-11868531D01*
X17060777Y-11868531D02*
X17070301Y-11859008D01*
X17070301Y-11859008D02*
X17089348Y-11849484D01*
X17222682Y-11849484D02*
X17346491Y-11849484D01*
X17346491Y-11849484D02*
X17279825Y-11925674D01*
X17279825Y-11925674D02*
X17308396Y-11925674D01*
X17308396Y-11925674D02*
X17327444Y-11935198D01*
X17327444Y-11935198D02*
X17336968Y-11944722D01*
X17336968Y-11944722D02*
X17346491Y-11963769D01*
X17346491Y-11963769D02*
X17346491Y-12011388D01*
X17346491Y-12011388D02*
X17336968Y-12030436D01*
X17336968Y-12030436D02*
X17327444Y-12039960D01*
X17327444Y-12039960D02*
X17308396Y-12049484D01*
X17308396Y-12049484D02*
X17251253Y-12049484D01*
X17251253Y-12049484D02*
X17232206Y-12039960D01*
X17232206Y-12039960D02*
X17222682Y-12030436D01*
X17441729Y-12049484D02*
X17479825Y-12049484D01*
X17479825Y-12049484D02*
X17498872Y-12039960D01*
X17498872Y-12039960D02*
X17508396Y-12030436D01*
X17508396Y-12030436D02*
X17527444Y-12001865D01*
X17527444Y-12001865D02*
X17536968Y-11963769D01*
X17536968Y-11963769D02*
X17536968Y-11887579D01*
X17536968Y-11887579D02*
X17527444Y-11868531D01*
X17527444Y-11868531D02*
X17517920Y-11859008D01*
X17517920Y-11859008D02*
X17498872Y-11849484D01*
X17498872Y-11849484D02*
X17460777Y-11849484D01*
X17460777Y-11849484D02*
X17441729Y-11859008D01*
X17441729Y-11859008D02*
X17432206Y-11868531D01*
X17432206Y-11868531D02*
X17422682Y-11887579D01*
X17422682Y-11887579D02*
X17422682Y-11935198D01*
X17422682Y-11935198D02*
X17432206Y-11954246D01*
X17432206Y-11954246D02*
X17441729Y-11963769D01*
X17441729Y-11963769D02*
X17460777Y-11973293D01*
X17460777Y-11973293D02*
X17498872Y-11973293D01*
X17498872Y-11973293D02*
X17517920Y-11963769D01*
X17517920Y-11963769D02*
X17527444Y-11954246D01*
X17527444Y-11954246D02*
X17536968Y-11935198D01*
X17708396Y-11916150D02*
X17708396Y-12049484D01*
X17660777Y-11839960D02*
X17613158Y-11982817D01*
X17613158Y-11982817D02*
X17736968Y-11982817D01*
X17803634Y-11849484D02*
X17803634Y-11887579D01*
X17879825Y-11849484D02*
X17879825Y-11887579D01*
X18175063Y-12125674D02*
X18165539Y-12116150D01*
X18165539Y-12116150D02*
X18146491Y-12087579D01*
X18146491Y-12087579D02*
X18136968Y-12068531D01*
X18136968Y-12068531D02*
X18127444Y-12039960D01*
X18127444Y-12039960D02*
X18117920Y-11992341D01*
X18117920Y-11992341D02*
X18117920Y-11954246D01*
X18117920Y-11954246D02*
X18127444Y-11906627D01*
X18127444Y-11906627D02*
X18136968Y-11878055D01*
X18136968Y-11878055D02*
X18146491Y-11859008D01*
X18146491Y-11859008D02*
X18165539Y-11830436D01*
X18165539Y-11830436D02*
X18175063Y-11820912D01*
X18356015Y-12049484D02*
X18241730Y-12049484D01*
X18298872Y-12049484D02*
X18298872Y-11849484D01*
X18298872Y-11849484D02*
X18279825Y-11878055D01*
X18279825Y-11878055D02*
X18260777Y-11897103D01*
X18260777Y-11897103D02*
X18241730Y-11906627D01*
X18594111Y-12049484D02*
X18594111Y-11849484D01*
X18679825Y-12049484D02*
X18679825Y-11944722D01*
X18679825Y-11944722D02*
X18670301Y-11925674D01*
X18670301Y-11925674D02*
X18651253Y-11916150D01*
X18651253Y-11916150D02*
X18622682Y-11916150D01*
X18622682Y-11916150D02*
X18603634Y-11925674D01*
X18603634Y-11925674D02*
X18594111Y-11935198D01*
X18803634Y-12049484D02*
X18784587Y-12039960D01*
X18784587Y-12039960D02*
X18775063Y-12030436D01*
X18775063Y-12030436D02*
X18765539Y-12011388D01*
X18765539Y-12011388D02*
X18765539Y-11954246D01*
X18765539Y-11954246D02*
X18775063Y-11935198D01*
X18775063Y-11935198D02*
X18784587Y-11925674D01*
X18784587Y-11925674D02*
X18803634Y-11916150D01*
X18803634Y-11916150D02*
X18832206Y-11916150D01*
X18832206Y-11916150D02*
X18851253Y-11925674D01*
X18851253Y-11925674D02*
X18860777Y-11935198D01*
X18860777Y-11935198D02*
X18870301Y-11954246D01*
X18870301Y-11954246D02*
X18870301Y-12011388D01*
X18870301Y-12011388D02*
X18860777Y-12030436D01*
X18860777Y-12030436D02*
X18851253Y-12039960D01*
X18851253Y-12039960D02*
X18832206Y-12049484D01*
X18832206Y-12049484D02*
X18803634Y-12049484D01*
X18984587Y-12049484D02*
X18965539Y-12039960D01*
X18965539Y-12039960D02*
X18956015Y-12020912D01*
X18956015Y-12020912D02*
X18956015Y-11849484D01*
X19136968Y-12039960D02*
X19117920Y-12049484D01*
X19117920Y-12049484D02*
X19079825Y-12049484D01*
X19079825Y-12049484D02*
X19060777Y-12039960D01*
X19060777Y-12039960D02*
X19051253Y-12020912D01*
X19051253Y-12020912D02*
X19051253Y-11944722D01*
X19051253Y-11944722D02*
X19060777Y-11925674D01*
X19060777Y-11925674D02*
X19079825Y-11916150D01*
X19079825Y-11916150D02*
X19117920Y-11916150D01*
X19117920Y-11916150D02*
X19136968Y-11925674D01*
X19136968Y-11925674D02*
X19146492Y-11944722D01*
X19146492Y-11944722D02*
X19146492Y-11963769D01*
X19146492Y-11963769D02*
X19051253Y-11982817D01*
X19213158Y-12125674D02*
X19222682Y-12116150D01*
X19222682Y-12116150D02*
X19241730Y-12087579D01*
X19241730Y-12087579D02*
X19251253Y-12068531D01*
X19251253Y-12068531D02*
X19260777Y-12039960D01*
X19260777Y-12039960D02*
X19270301Y-11992341D01*
X19270301Y-11992341D02*
X19270301Y-11954246D01*
X19270301Y-11954246D02*
X19260777Y-11906627D01*
X19260777Y-11906627D02*
X19251253Y-11878055D01*
X19251253Y-11878055D02*
X19241730Y-11859008D01*
X19241730Y-11859008D02*
X19222682Y-11830436D01*
X19222682Y-11830436D02*
X19213158Y-11820912D01*
M02*
