%TF.GenerationSoftware,KiCad,Pcbnew,7.0.9*%
%TF.CreationDate,2024-04-23T21:06:01-07:00*%
%TF.ProjectId,U11-74LS138,5531312d-3734-44c5-9331-33382e6b6963,rev?*%
%TF.SameCoordinates,Original*%
%TF.FileFunction,Legend,Top*%
%TF.FilePolarity,Positive*%
%FSLAX46Y46*%
G04 Gerber Fmt 4.6, Leading zero omitted, Abs format (unit mm)*
G04 Created by KiCad (PCBNEW 7.0.9) date 2024-04-23 21:06:01*
%MOMM*%
%LPD*%
G01*
G04 APERTURE LIST*
%ADD10C,0.150000*%
%ADD11C,0.120000*%
%ADD12C,0.100000*%
G04 APERTURE END LIST*
D10*
X149891905Y-86449819D02*
X149891905Y-87259342D01*
X149891905Y-87259342D02*
X149939524Y-87354580D01*
X149939524Y-87354580D02*
X149987143Y-87402200D01*
X149987143Y-87402200D02*
X150082381Y-87449819D01*
X150082381Y-87449819D02*
X150272857Y-87449819D01*
X150272857Y-87449819D02*
X150368095Y-87402200D01*
X150368095Y-87402200D02*
X150415714Y-87354580D01*
X150415714Y-87354580D02*
X150463333Y-87259342D01*
X150463333Y-87259342D02*
X150463333Y-86449819D01*
X150891905Y-86545057D02*
X150939524Y-86497438D01*
X150939524Y-86497438D02*
X151034762Y-86449819D01*
X151034762Y-86449819D02*
X151272857Y-86449819D01*
X151272857Y-86449819D02*
X151368095Y-86497438D01*
X151368095Y-86497438D02*
X151415714Y-86545057D01*
X151415714Y-86545057D02*
X151463333Y-86640295D01*
X151463333Y-86640295D02*
X151463333Y-86735533D01*
X151463333Y-86735533D02*
X151415714Y-86878390D01*
X151415714Y-86878390D02*
X150844286Y-87449819D01*
X150844286Y-87449819D02*
X151463333Y-87449819D01*
X151939524Y-87449819D02*
X152130000Y-87449819D01*
X152130000Y-87449819D02*
X152225238Y-87402200D01*
X152225238Y-87402200D02*
X152272857Y-87354580D01*
X152272857Y-87354580D02*
X152368095Y-87211723D01*
X152368095Y-87211723D02*
X152415714Y-87021247D01*
X152415714Y-87021247D02*
X152415714Y-86640295D01*
X152415714Y-86640295D02*
X152368095Y-86545057D01*
X152368095Y-86545057D02*
X152320476Y-86497438D01*
X152320476Y-86497438D02*
X152225238Y-86449819D01*
X152225238Y-86449819D02*
X152034762Y-86449819D01*
X152034762Y-86449819D02*
X151939524Y-86497438D01*
X151939524Y-86497438D02*
X151891905Y-86545057D01*
X151891905Y-86545057D02*
X151844286Y-86640295D01*
X151844286Y-86640295D02*
X151844286Y-86878390D01*
X151844286Y-86878390D02*
X151891905Y-86973628D01*
X151891905Y-86973628D02*
X151939524Y-87021247D01*
X151939524Y-87021247D02*
X152034762Y-87068866D01*
X152034762Y-87068866D02*
X152225238Y-87068866D01*
X152225238Y-87068866D02*
X152320476Y-87021247D01*
X152320476Y-87021247D02*
X152368095Y-86973628D01*
X152368095Y-86973628D02*
X152415714Y-86878390D01*
D11*
%TO.C,U29*%
X146625000Y-88265000D02*
X149285000Y-88265000D01*
X146625000Y-88325000D02*
X149285000Y-88325000D01*
D12*
X146939000Y-85979000D02*
X148971000Y-85979000D01*
X148971000Y-85979000D02*
X148971000Y-88011000D01*
X148971000Y-88011000D02*
X146939000Y-88011000D01*
X146939000Y-88011000D02*
X146939000Y-85979000D01*
D11*
%TO.C,SOCKET_74LS1*%
X151020000Y-109965000D02*
X156320000Y-109965000D01*
X158810000Y-89465000D02*
X148530000Y-89465000D01*
X156320000Y-109965000D02*
X156320000Y-89525000D01*
X152670000Y-89525000D02*
X151020000Y-89525000D01*
X156320000Y-89525000D02*
X154670000Y-89525000D01*
X151020000Y-89525000D02*
X151020000Y-109965000D01*
X158810000Y-110025000D02*
X158810000Y-89465000D01*
X148530000Y-89465000D02*
X148530000Y-110025000D01*
X148530000Y-110025000D02*
X158810000Y-110025000D01*
X152670000Y-89525000D02*
G75*
G03*
X154670000Y-89525000I1000000J0D01*
G01*
%TD*%
M02*
