%TF.GenerationSoftware,KiCad,Pcbnew,7.0.9*%
%TF.CreationDate,2024-04-23T21:05:59-07:00*%
%TF.ProjectId,U11-74LS138,5531312d-3734-44c5-9331-33382e6b6963,rev?*%
%TF.SameCoordinates,Original*%
%TF.FileFunction,Drillmap*%
%TF.FilePolarity,Positive*%
%FSLAX45Y45*%
G04 Gerber Fmt 4.5, Leading zero omitted, Abs format (unit mm)*
G04 Created by KiCad (PCBNEW 7.0.9) date 2024-04-23 21:05:59*
%MOMM*%
%LPD*%
G01*
G04 APERTURE LIST*
%ADD10C,0.100000*%
%ADD11C,0.200000*%
G04 APERTURE END LIST*
D10*
X15938500Y-8509000D02*
X14605000Y-8509000D01*
X15938500Y-11049000D02*
X15938500Y-8509000D01*
X14605000Y-11049000D02*
X15938500Y-11049000D01*
X14605000Y-8509000D02*
X14605000Y-11049000D01*
D11*
X14860777Y-11365484D02*
X14860777Y-11165484D01*
X14860777Y-11165484D02*
X14908396Y-11165484D01*
X14908396Y-11165484D02*
X14936967Y-11175008D01*
X14936967Y-11175008D02*
X14956015Y-11194055D01*
X14956015Y-11194055D02*
X14965539Y-11213103D01*
X14965539Y-11213103D02*
X14975062Y-11251198D01*
X14975062Y-11251198D02*
X14975062Y-11279769D01*
X14975062Y-11279769D02*
X14965539Y-11317865D01*
X14965539Y-11317865D02*
X14956015Y-11336912D01*
X14956015Y-11336912D02*
X14936967Y-11355960D01*
X14936967Y-11355960D02*
X14908396Y-11365484D01*
X14908396Y-11365484D02*
X14860777Y-11365484D01*
X15060777Y-11365484D02*
X15060777Y-11232150D01*
X15060777Y-11270246D02*
X15070301Y-11251198D01*
X15070301Y-11251198D02*
X15079824Y-11241674D01*
X15079824Y-11241674D02*
X15098872Y-11232150D01*
X15098872Y-11232150D02*
X15117920Y-11232150D01*
X15184586Y-11365484D02*
X15184586Y-11232150D01*
X15184586Y-11165484D02*
X15175062Y-11175008D01*
X15175062Y-11175008D02*
X15184586Y-11184531D01*
X15184586Y-11184531D02*
X15194110Y-11175008D01*
X15194110Y-11175008D02*
X15184586Y-11165484D01*
X15184586Y-11165484D02*
X15184586Y-11184531D01*
X15308396Y-11365484D02*
X15289348Y-11355960D01*
X15289348Y-11355960D02*
X15279824Y-11336912D01*
X15279824Y-11336912D02*
X15279824Y-11165484D01*
X15413158Y-11365484D02*
X15394110Y-11355960D01*
X15394110Y-11355960D02*
X15384586Y-11336912D01*
X15384586Y-11336912D02*
X15384586Y-11165484D01*
X15641729Y-11365484D02*
X15641729Y-11165484D01*
X15641729Y-11165484D02*
X15708396Y-11308341D01*
X15708396Y-11308341D02*
X15775062Y-11165484D01*
X15775062Y-11165484D02*
X15775062Y-11365484D01*
X15956015Y-11365484D02*
X15956015Y-11260722D01*
X15956015Y-11260722D02*
X15946491Y-11241674D01*
X15946491Y-11241674D02*
X15927443Y-11232150D01*
X15927443Y-11232150D02*
X15889348Y-11232150D01*
X15889348Y-11232150D02*
X15870301Y-11241674D01*
X15956015Y-11355960D02*
X15936967Y-11365484D01*
X15936967Y-11365484D02*
X15889348Y-11365484D01*
X15889348Y-11365484D02*
X15870301Y-11355960D01*
X15870301Y-11355960D02*
X15860777Y-11336912D01*
X15860777Y-11336912D02*
X15860777Y-11317865D01*
X15860777Y-11317865D02*
X15870301Y-11298817D01*
X15870301Y-11298817D02*
X15889348Y-11289293D01*
X15889348Y-11289293D02*
X15936967Y-11289293D01*
X15936967Y-11289293D02*
X15956015Y-11279769D01*
X16051253Y-11232150D02*
X16051253Y-11432150D01*
X16051253Y-11241674D02*
X16070301Y-11232150D01*
X16070301Y-11232150D02*
X16108396Y-11232150D01*
X16108396Y-11232150D02*
X16127443Y-11241674D01*
X16127443Y-11241674D02*
X16136967Y-11251198D01*
X16136967Y-11251198D02*
X16146491Y-11270246D01*
X16146491Y-11270246D02*
X16146491Y-11327388D01*
X16146491Y-11327388D02*
X16136967Y-11346436D01*
X16136967Y-11346436D02*
X16127443Y-11355960D01*
X16127443Y-11355960D02*
X16108396Y-11365484D01*
X16108396Y-11365484D02*
X16070301Y-11365484D01*
X16070301Y-11365484D02*
X16051253Y-11355960D01*
X16232205Y-11346436D02*
X16241729Y-11355960D01*
X16241729Y-11355960D02*
X16232205Y-11365484D01*
X16232205Y-11365484D02*
X16222682Y-11355960D01*
X16222682Y-11355960D02*
X16232205Y-11346436D01*
X16232205Y-11346436D02*
X16232205Y-11365484D01*
X16232205Y-11241674D02*
X16241729Y-11251198D01*
X16241729Y-11251198D02*
X16232205Y-11260722D01*
X16232205Y-11260722D02*
X16222682Y-11251198D01*
X16222682Y-11251198D02*
X16232205Y-11241674D01*
X16232205Y-11241674D02*
X16232205Y-11260722D01*
M02*
