%TF.GenerationSoftware,KiCad,Pcbnew,7.0.9*%
%TF.CreationDate,2024-04-23T21:06:01-07:00*%
%TF.ProjectId,U11-74LS138,5531312d-3734-44c5-9331-33382e6b6963,rev?*%
%TF.SameCoordinates,Original*%
%TF.FileFunction,Copper,L1,Top*%
%TF.FilePolarity,Positive*%
%FSLAX46Y46*%
G04 Gerber Fmt 4.6, Leading zero omitted, Abs format (unit mm)*
G04 Created by KiCad (PCBNEW 7.0.9) date 2024-04-23 21:06:01*
%MOMM*%
%LPD*%
G01*
G04 APERTURE LIST*
%TA.AperFunction,ComponentPad*%
%ADD10R,1.700000X1.700000*%
%TD*%
%TA.AperFunction,ComponentPad*%
%ADD11O,1.600000X1.600000*%
%TD*%
%TA.AperFunction,ComponentPad*%
%ADD12R,1.600000X1.600000*%
%TD*%
%TA.AperFunction,Conductor*%
%ADD13C,0.250000*%
%TD*%
G04 APERTURE END LIST*
D10*
%TO.P,U29,1,Pin_1*%
%TO.N,Net-(J1-Pin_1)*%
X147955000Y-86995000D03*
%TD*%
D11*
%TO.P,Ue,16,VCC*%
%TO.N,VCC*%
X154940000Y-90805000D03*
%TO.P,Ue,15,O0*%
%TO.N,Net-(SOCKET_74LS1-O0)*%
X154940000Y-93345000D03*
%TO.P,Ue,14,O1*%
%TO.N,Net-(SOCKET_74LS1-O1)*%
X154940000Y-95885000D03*
%TO.P,Ue,13,O2*%
%TO.N,Net-(SOCKET_74LS1-O2)*%
X154940000Y-98425000D03*
%TO.P,Ue,12,O3*%
%TO.N,Net-(SOCKET_74LS1-O3)*%
X154940000Y-100965000D03*
%TO.P,Ue,11,O4*%
%TO.N,Net-(SOCKET_74LS1-O4)*%
X154940000Y-103505000D03*
%TO.P,Ue,10,O5*%
%TO.N,Net-(SOCKET_74LS1-O5)*%
X154940000Y-106045000D03*
%TO.P,Ue,9,O6*%
%TO.N,Net-(SOCKET_74LS1-O6)*%
X154940000Y-108585000D03*
%TO.P,Ue,8,GND*%
%TO.N,GND*%
X147320000Y-108585000D03*
%TO.P,Ue,7,O7*%
%TO.N,Net-(SOCKET_74LS1-O7)*%
X147320000Y-106045000D03*
%TO.P,Ue,6,E3*%
%TO.N,Net-(SOCKET_74LS1-E3)*%
X147320000Y-103505000D03*
%TO.P,Ue,5,E2*%
%TO.N,unconnected-(U1-E2-Pad5)*%
X147320000Y-100965000D03*
%TO.P,Ue,4,E1*%
%TO.N,Net-(SOCKET_74LS1-E1)*%
X147320000Y-98425000D03*
%TO.P,Ue,3,A2*%
%TO.N,Net-(SOCKET_74LS1-A2)*%
X147320000Y-95885000D03*
%TO.P,Ue,2,A1*%
%TO.N,Net-(SOCKET_74LS1-A1)*%
X147320000Y-93345000D03*
D12*
%TO.P,Ue,1,A0*%
%TO.N,Net-(SOCKET_74LS1-A0)*%
X147320000Y-90805000D03*
%TD*%
%TO.P,SOCKET_74LS1,1,A0*%
%TO.N,Net-(SOCKET_74LS1-A0)*%
X149860000Y-90855000D03*
D11*
%TO.P,SOCKET_74LS1,2,A1*%
%TO.N,Net-(SOCKET_74LS1-A1)*%
X149860000Y-93395000D03*
%TO.P,SOCKET_74LS1,3,A2*%
%TO.N,Net-(SOCKET_74LS1-A2)*%
X149860000Y-95935000D03*
%TO.P,SOCKET_74LS1,4,E1*%
%TO.N,Net-(SOCKET_74LS1-E1)*%
X149860000Y-98475000D03*
%TO.P,SOCKET_74LS1,5,E2*%
%TO.N,Net-(J1-Pin_1)*%
X149860000Y-101015000D03*
%TO.P,SOCKET_74LS1,6,E3*%
%TO.N,Net-(SOCKET_74LS1-E3)*%
X149860000Y-103555000D03*
%TO.P,SOCKET_74LS1,7,O7*%
%TO.N,Net-(SOCKET_74LS1-O7)*%
X149860000Y-106095000D03*
%TO.P,SOCKET_74LS1,8,GND*%
%TO.N,GND*%
X149860000Y-108635000D03*
%TO.P,SOCKET_74LS1,9,O6*%
%TO.N,Net-(SOCKET_74LS1-O6)*%
X157480000Y-108635000D03*
%TO.P,SOCKET_74LS1,10,O5*%
%TO.N,Net-(SOCKET_74LS1-O5)*%
X157480000Y-106095000D03*
%TO.P,SOCKET_74LS1,11,O4*%
%TO.N,Net-(SOCKET_74LS1-O4)*%
X157480000Y-103555000D03*
%TO.P,SOCKET_74LS1,12,O3*%
%TO.N,Net-(SOCKET_74LS1-O3)*%
X157480000Y-101015000D03*
%TO.P,SOCKET_74LS1,13,O2*%
%TO.N,Net-(SOCKET_74LS1-O2)*%
X157480000Y-98475000D03*
%TO.P,SOCKET_74LS1,14,O1*%
%TO.N,Net-(SOCKET_74LS1-O1)*%
X157480000Y-95935000D03*
%TO.P,SOCKET_74LS1,15,O0*%
%TO.N,Net-(SOCKET_74LS1-O0)*%
X157480000Y-93395000D03*
%TO.P,SOCKET_74LS1,16,VCC*%
%TO.N,VCC*%
X157480000Y-90855000D03*
%TD*%
D13*
%TO.N,VCC*%
X157430000Y-90805000D02*
X157480000Y-90855000D01*
X154940000Y-90805000D02*
X157430000Y-90805000D01*
%TO.N,Net-(SOCKET_74LS1-O0)*%
X157430000Y-93345000D02*
X157480000Y-93395000D01*
X154940000Y-93345000D02*
X157430000Y-93345000D01*
%TO.N,Net-(SOCKET_74LS1-O1)*%
X157430000Y-95885000D02*
X157480000Y-95935000D01*
X154940000Y-95885000D02*
X157430000Y-95885000D01*
%TO.N,Net-(SOCKET_74LS1-O2)*%
X154940000Y-98425000D02*
X157430000Y-98425000D01*
X157430000Y-98425000D02*
X157480000Y-98475000D01*
%TO.N,Net-(SOCKET_74LS1-O3)*%
X157430000Y-100965000D02*
X157480000Y-101015000D01*
X154940000Y-100965000D02*
X157430000Y-100965000D01*
%TO.N,Net-(SOCKET_74LS1-O4)*%
X157430000Y-103505000D02*
X157480000Y-103555000D01*
X154940000Y-103505000D02*
X157430000Y-103505000D01*
%TO.N,Net-(SOCKET_74LS1-O5)*%
X157430000Y-106045000D02*
X157480000Y-106095000D01*
X154940000Y-106045000D02*
X157430000Y-106045000D01*
%TO.N,Net-(SOCKET_74LS1-O6)*%
X157430000Y-108585000D02*
X157480000Y-108635000D01*
X154940000Y-108585000D02*
X157430000Y-108585000D01*
%TO.N,GND*%
X149810000Y-108585000D02*
X149860000Y-108635000D01*
X147320000Y-108585000D02*
X149810000Y-108585000D01*
%TO.N,Net-(SOCKET_74LS1-O7)*%
X149810000Y-106045000D02*
X149860000Y-106095000D01*
X147320000Y-106045000D02*
X149810000Y-106045000D01*
%TO.N,Net-(SOCKET_74LS1-E3)*%
X149810000Y-103505000D02*
X149860000Y-103555000D01*
X147320000Y-103505000D02*
X149810000Y-103505000D01*
%TO.N,Net-(J1-Pin_1)*%
X152400000Y-90170000D02*
X152400000Y-98475000D01*
X149225000Y-86995000D02*
X152400000Y-90170000D01*
X147955000Y-86995000D02*
X149225000Y-86995000D01*
X149860000Y-101015000D02*
X152400000Y-98475000D01*
%TO.N,Net-(SOCKET_74LS1-E1)*%
X147320000Y-98425000D02*
X149810000Y-98425000D01*
X149810000Y-98425000D02*
X149860000Y-98475000D01*
%TO.N,Net-(SOCKET_74LS1-A2)*%
X149810000Y-95885000D02*
X149860000Y-95935000D01*
X147320000Y-95885000D02*
X149810000Y-95885000D01*
%TO.N,Net-(SOCKET_74LS1-A1)*%
X149810000Y-93345000D02*
X149860000Y-93395000D01*
X147320000Y-93345000D02*
X149810000Y-93345000D01*
%TO.N,Net-(SOCKET_74LS1-A0)*%
X149810000Y-90805000D02*
X149860000Y-90855000D01*
X147320000Y-90805000D02*
X149810000Y-90805000D01*
%TD*%
M02*
