M48
; DRILL file {KiCad 7.0.9} date Tue Apr 23 21:05:57 2024
; FORMAT={-:-/ absolute / metric / decimal}
; #@! TF.CreationDate,2024-04-23T21:05:57-07:00
; #@! TF.GenerationSoftware,Kicad,Pcbnew,7.0.9
; #@! TF.FileFunction,Plated,1,2,PTH
FMAT,2
METRIC
; #@! TA.AperFunction,Plated,PTH,ComponentDrill
T1C0.800
; #@! TA.AperFunction,Plated,PTH,ComponentDrill
T2C1.000
%
G90
G05
T1
X147.32Y-90.805
X147.32Y-93.345
X147.32Y-95.885
X147.32Y-98.425
X147.32Y-100.965
X147.32Y-103.505
X147.32Y-106.045
X147.32Y-108.585
X149.86Y-90.855
X149.86Y-93.395
X149.86Y-95.935
X149.86Y-98.475
X149.86Y-101.015
X149.86Y-103.555
X149.86Y-106.095
X149.86Y-108.635
X154.94Y-90.805
X154.94Y-93.345
X154.94Y-95.885
X154.94Y-98.425
X154.94Y-100.965
X154.94Y-103.505
X154.94Y-106.045
X154.94Y-108.585
X157.48Y-90.855
X157.48Y-93.395
X157.48Y-95.935
X157.48Y-98.475
X157.48Y-101.015
X157.48Y-103.555
X157.48Y-106.095
X157.48Y-108.635
T2
X147.955Y-86.995
T0
M30
